# xmcd
#
# Track frame offsets:
#	150
#	10990
#	23199
#	35996
#	48039
#	64206
#	76368
#	86111
#	95758
#	110632
#
# Disc length: 1642 seconds
#
# Revision: 1
# Processed by: cddbd v1.5.1PL0 Copyright (c) Steve Scherf et al.
# Submitted via: audiograbber 1.80
#
DISCID=8306680a
DTITLE=Dolly Parton - Love Is Like A Butterfly
DYEAR=1900
DGENRE=
TTITLE0=Love Is Like A Butterfly
TTITLE1=If I Cross Your Mind
TTITLE2=My Eyes Can Only See You
TTITLE3=Take Me Back
TTITLE4=Blackie, Kentucky
TTITLE5=Gettin' Happy
TTITLE6=You're The One That Tought Me
TTITLE7=Highway Headin' South
TTITLE8=Once Upon A Memory
TTITLE9=Sacred Memories
EXTD=
EXTT0=
EXTT1=
EXTT2=
EXTT3=
EXTT4=
EXTT5=
EXTT6=
EXTT7=
EXTT8=
EXTT9=
PLAYORDER=
